<?xml version="1.0" encoding="UTF-8" standalone="no"?>
<svg
   xmlns:dc="http://purl.org/dc/elements/1.1/"
   xmlns:cc="http://creativecommons.org/ns#"
   xmlns:rdf="http://www.w3.org/1999/02/22-rdf-syntax-ns#"
   xmlns:svg="http://www.w3.org/2000/svg"
   xmlns="http://www.w3.org/2000/svg"
   xmlns:xlink="http://www.w3.org/1999/xlink"
   xmlns:sodipodi="http://sodipodi.sourceforge.net/DTD/sodipodi-0.dtd"
   xmlns:inkscape="http://www.inkscape.org/namespaces/inkscape"
   version="1.1"
   width="16in"
   height="12in"
   viewBox="0 0 1440.0011 1080.0009"
   id="svg3556"
   inkscape:version="0.91 r13725"
   sodipodi:docname="Controll horns and Firewalls.svg">
  <metadata
     id="metadata3590">
    <rdf:RDF>
      <cc:Work
         rdf:about="">
        <dc:format>image/svg+xml</dc:format>
        <dc:type
           rdf:resource="http://purl.org/dc/dcmitype/StillImage" />
        <dc:title></dc:title>
      </cc:Work>
    </rdf:RDF>
  </metadata>
  <defs
     id="defs3588">
    <color-profile
       name="Generic-RGB-Profile"
       xlink:href="/System/Library/ColorSync/Profiles/Generic RGB Profile.icc"
       id="color-profile4448" />
  </defs>
  <sodipodi:namedview
     pagecolor="#ffffff"
     bordercolor="#666666"
     borderopacity="1"
     objecttolerance="10"
     gridtolerance="10"
     guidetolerance="10"
     inkscape:pageopacity="0"
     inkscape:pageshadow="2"
     inkscape:window-width="2009"
     inkscape:window-height="1261"
     id="namedview3586"
     showgrid="true"
     units="in"
     showguides="true"
     inkscape:zoom="0.95"
     inkscape:cx="543.83755"
     inkscape:cy="1151.3896"
     inkscape:window-x="10"
     inkscape:window-y="0"
     inkscape:window-maximized="0"
     inkscape:current-layer="svg3556">
    <inkscape:grid
       type="xygrid"
       id="grid3646" />
  </sodipodi:namedview>
  <!-- Front-->
  <!-- Back-->
  <!-- Left-->
  <!-- Right-->
  <!-- Top-->
  <!-- Bottom-->
  <g
     id="g4504"
     transform="matrix(-0.99999869,-0.00158348,0.00158348,-0.99999885,429.05524,1354.2935)"
     style="fill:none;stroke:#ff0000;stroke-opacity:1">
    <path
       d="M 301.1317,1328.5795 M 354.28134,1215.1936 M 318.84825,1215.1936 M 301.1317,1232.9101 M 301.1317,1243.54 M 290.50177,1248.855 M 290.50177,1263.0282 M 301.1317,1268.3432 M 301.1317,1293.1464 M 290.50177,1298.4613 M 290.50177,1312.6346 M 301.1317,1317.9496 M 332.56038,1223.6419 M 332.16933,1223.8888 M 331.7277,1224.0261 M 331.26556,1224.0451 M 330.81443,1223.9432 M 330.40505,1223.728 M 330.06532,1223.4142 M 329.81838,1223.0231 M 329.68108,1222.5815 M 329.66908,1222.2807 M 329.66308,1222.1192 M 329.76501,1221.6681 M 329.98019,1221.2587 M 330.29399,1220.919 M 330.68504,1220.6721 M 331.12667,1220.5347 M 331.42736,1220.5087 M 331.58879,1220.5187 M 332.03992,1220.6206 M 332.4493,1220.8358 M 332.78904,1221.1496 M 333.03597,1221.5406 M 333.17331,1221.9822 M 333.18521,1222.2829 M 333.19121,1222.4443 M 333.0893,1222.8954 M 332.87412,1223.3048 M 318.38964,1223.9942 M 317.96235,1223.8172 M 317.59543,1223.5356 M 317.31388,1223.1687 M 317.13689,1222.7414 M 317.07649,1222.2829 M 317.13689,1221.8243 M 317.31386,1221.3971 M 317.59542,1221.0301 M 317.96234,1220.7486 M 318.38962,1220.5716 M 318.84816,1220.5116 M 319.3067,1220.5716 M 319.73399,1220.7486 M 320.10091,1221.0301 M 320.38246,1221.3971 M 320.55945,1221.8243 M 320.61985,1222.2829 M 320.55945,1222.7414 M 320.38247,1223.1687 M 320.10092,1223.5356 M 319.734,1223.8172 M 319.30671,1223.9942 M 318.84817,1224.0542 M 344.61074,1223.8722 M 344.17267,1224.0205 M 343.71114,1224.0505 M 343.2576,1223.9595 M 342.84298,1223.7546 M 342.49552,1223.4494 M 342.23892,1223.0646 M 342.09063,1222.6265 M 342.06833,1222.2825 M 342.06133,1222.1651 M 342.15193,1221.7116 M 342.35684,1221.2969 M 342.66206,1220.9495 M 343.04679,1220.6929 M 343.48487,1220.5446 M 343.8289,1220.5106 M 343.94629,1220.5106 M 344.39982,1220.6016 M 344.81445,1220.8065 M 345.1619,1221.1118 M 345.41851,1221.4966 M 345.5668,1221.9346 M 345.5891,1222.2788 M 345.5961,1222.3962 M 345.5055,1222.8497 M 345.30063,1223.2643 M 344.99537,1223.6118"
       style="fill:none;stroke:#ff0000;stroke-width:1;stroke-linecap:round;stroke-linejoin:round;stroke-miterlimit:4;stroke-dasharray:none;stroke-opacity:1"
       id="path22"
       inkscape:connector-curvature="0" />
    <path
       d="M 354.28134,1300.233 M 364.91128,1294.918 M 364.91128,1280.7448 M 354.28134,1275.4298 M 354.28134,1250.6267 M 364.91128,1245.3117 M 364.91128,1231.1385 M 354.28134,1225.8235 M 354.28134,1215.1936 M 301.1317,1328.5795 M 336.5648,1328.5795 M 354.28134,1310.8629 M 323.51535,1323.2008 M 323.08933,1323.0208 M 322.72442,1322.7367 M 322.44549,1322.3678 M 322.27155,1321.9392 M 322.21445,1321.4803 M 322.27805,1321.0222 M 322.45808,1320.5962 M 322.74222,1320.2312 M 323.11113,1319.9523 M 323.53967,1319.7784 M 323.99862,1319.7214 M 324.45673,1319.7854 M 324.88274,1319.9654 M 325.24766,1320.2495 M 325.52659,1320.6185 M 325.70053,1321.047 M 325.75763,1321.5059 M 325.69403,1321.964 M 325.51399,1322.3901 M 325.22985,1322.755 M 324.86094,1323.0339 M 324.4324,1323.2078 M 323.98604,1323.2648 M 312.73069,1320.1811 M 313.02971,1320.534 M 313.22721,1320.9522 M 313.30971,1321.4073 M 313.27171,1321.8682 M 313.11566,1322.3035 M 312.85225,1322.6837 M 312.49941,1322.9827 M 312.08121,1323.1802 M 311.5402,1323.2652 M 311.1652,1323.2252 M 310.72983,1323.0692 M 310.34968,1322.8058 M 310.05066,1322.4529 M 309.85316,1322.0347 M 309.77066,1321.5796 M 309.80866,1321.1187 M 309.96471,1320.6834 M 310.22812,1320.3032 M 310.58096,1320.0042 M 310.99916,1319.8067 M 311.45423,1319.7247 M 311.91516,1319.7627 M 312.35053,1319.9187 M 337.07422,1319.7973 M 337.49604,1319.987 M 337.85439,1320.2794 M 338.12485,1320.6546 M 338.28901,1321.087 M 338.33571,1321.5471 M 338.26171,1322.0036 M 338.07204,1322.4254 M 337.77964,1322.7838 M 337.40448,1323.0542 M 336.97209,1323.2184 M 336.56485,1323.2654 M 336.05541,1323.1904 M 335.6336,1323.0007 M 335.27525,1322.7083 M 335.00479,1322.3332 M 334.84063,1321.9008 M 334.79393,1321.4405 M 334.86793,1320.984 M 335.0576,1320.5622 M 335.34999,1320.2038 M 335.72516,1319.9334 M 336.15754,1319.7692 M 336.61768,1319.7222"
       style="fill:none;stroke:#ff0000;stroke-width:1;stroke-linecap:round;stroke-linejoin:round;stroke-miterlimit:4;stroke-dasharray:none;stroke-opacity:1"
       id="path28"
       inkscape:connector-curvature="0" />
    <path
       d="M 299.84272,1277.5207 310.47265,1282.8357 310.47265,1293.4656 328.1892,1311.1822 M 363.6223,1311.1822 M 310.47265,1197.7963 310.47265,1208.4262 299.84272,1213.7412 M 299.84272,1227.9144 310.47265,1233.2294 310.47265,1258.0325 299.84272,1263.3475 M 341.66467,1305.6235 341.23865,1305.8035 340.76795,1305.8675 340.32159,1305.8105 339.89306,1305.6366 339.52414,1305.3577 339.24001,1304.9928 339.05997,1304.5667 338.99637,1304.1086 339.05347,1303.6497 339.22741,1303.2212 339.50634,1302.8522 339.87125,1302.5681 340.29727,1302.3881 340.75537,1302.3241 341.21433,1302.3811 341.64286,1302.555 342.01178,1302.8339 342.29591,1303.1989 342.47595,1303.6249 342.53955,1304.083 342.48245,1304.5419 342.30851,1304.9705 342.02958,1305.3394 341.66467,1305.6235 M 351.7243,1303.1364 352.02332,1302.7835 352.40347,1302.5201 352.83884,1302.3641 353.29976,1302.3261 353.75483,1302.4081 354.17303,1302.6056 354.52588,1302.9046 354.78929,1303.2847 354.94533,1303.7201 354.98333,1304.181 354.90083,1304.6361 354.70333,1305.0543 354.40431,1305.4071 354.02416,1305.6705 353.58879,1305.8266 353.2138,1305.8666 352.6728,1305.7816 352.2546,1305.5841 351.90176,1305.2851 351.63835,1304.9049 351.4823,1304.4696 351.4443,1304.0086 351.5268,1303.5536 351.7243,1303.1354 M 327.25795,1302.5874 327.67977,1302.3977 328.1363,1302.3237 328.59643,1302.3707 329.02882,1302.5349 329.40398,1302.8053 329.69638,1303.1637 329.88605,1303.5855 329.96005,1304.042 329.91335,1304.5022 329.74919,1304.9346 329.47873,1305.3097 329.12038,1305.6021 328.69856,1305.7918 328.18915,1305.8668 327.78192,1305.8198 327.34953,1305.6556 326.97437,1305.3852 326.68197,1305.0268 326.4923,1304.605 326.4183,1304.1485 326.465,1303.6883 326.62916,1303.256 326.89962,1302.8808 327.25797,1302.5884"
       style="fill:none;stroke:#ff0000;stroke-width:1;stroke-linecap:round;stroke-linejoin:round;stroke-miterlimit:4;stroke-dasharray:none;stroke-opacity:1"
       id="face2-cut"
       inkscape:connector-curvature="0" />
    <path
       d="M 310.47265,1197.7963 M 363.6223,1311.1822 363.6223,1300.5523 374.25223,1295.2373 374.25223,1281.0641 363.6223,1275.7491 363.6223,1250.9459 374.25223,1245.631 374.25223,1231.4577 363.6223,1226.1428 363.6223,1215.5128 345.90575,1197.7963 310.47265,1197.7963 M 332.58466,1206.4915 332.19361,1206.2446 331.87982,1205.9049 331.66463,1205.4955 331.56273,1205.0443 331.56873,1204.8829 331.58083,1204.5822 331.71817,1204.1406 331.9651,1203.7495 332.30483,1203.4357 332.71421,1203.2206 333.16524,1203.1186 333.32668,1203.1086 333.62736,1203.1346 334.069,1203.2719 334.46005,1203.5189 334.77385,1203.8586 334.98903,1204.268 335.09094,1204.7191 335.08494,1204.8806 335.07294,1205.1812 334.9356,1205.6229 334.68866,1206.0139 334.34893,1206.3277 333.93955,1206.5429 333.48842,1206.6448 333.02628,1206.6268 332.58465,1206.4894 M 346.79168,1206.4154 346.36439,1206.5924 345.90585,1206.6524 345.44731,1206.5924 345.02002,1206.4154 344.6531,1206.1338 344.37155,1205.7669 344.19456,1205.3396 344.13416,1204.8811 344.19456,1204.4225 344.37155,1203.9953 344.6531,1203.6283 345.02002,1203.3468 345.44731,1203.1698 345.90585,1203.1098 346.36439,1203.1698 346.79168,1203.3468 347.1586,1203.6284 347.44015,1203.9953 347.61714,1204.4226 347.67754,1204.8811 347.61714,1205.3396 347.44015,1205.7669 347.1586,1206.1338 346.79168,1206.4154 M 320.58136,1206.619 320.14328,1206.4707 319.75852,1206.2141 319.4533,1205.8666 319.24839,1205.452 319.15779,1204.9985 319.16479,1204.8811 319.18709,1204.5369 319.33537,1204.0989 319.59198,1203.7141 319.93944,1203.4088 320.35406,1203.2039 320.80759,1203.1129 320.92505,1203.1129 321.26922,1203.1469 321.70729,1203.2952 322.09206,1203.5518 322.39732,1203.8992 322.60223,1204.3139 322.69283,1204.7674 322.68583,1204.8848 322.66353,1205.229 322.51524,1205.667 322.25863,1206.0518 321.91118,1206.3571 321.49655,1206.562 321.04302,1206.653 320.58149,1206.623"
       style="fill:none;stroke:#ff0000;stroke-width:1;stroke-linecap:round;stroke-linejoin:round;stroke-miterlimit:4;stroke-dasharray:none;stroke-opacity:1"
       id="face4-cut"
       inkscape:connector-curvature="0" />
    <path
       d="M 299.84272,1277.5207 M 310.47265,1282.8357 M 310.47265,1293.4656 M 328.1892,1311.1822 363.6223,1311.1822 310.47265,1197.7963 M 310.47265,1208.4262 M 299.84272,1213.7412 299.84272,1227.9144 M 310.47265,1233.2294 M 310.47265,1258.0325 M 299.84272,1263.3475 299.84272,1277.5207 M 341.66467,1305.6235 M 341.23865,1305.8036 M 340.76795,1305.8676 M 340.32159,1305.8106 M 339.89306,1305.6366 M 339.52414,1305.3577 M 339.24001,1304.9928 M 339.05997,1304.5668 M 338.99637,1304.1087 M 339.05347,1303.6497 M 339.22741,1303.2212 M 339.50634,1302.8523 M 339.87125,1302.5681 M 340.29727,1302.3881 M 340.75537,1302.3241 M 341.21433,1302.3811 M 341.64286,1302.555 M 342.01178,1302.834 M 342.29591,1303.1989 M 342.47595,1303.6249 M 342.53955,1304.083 M 342.48245,1304.5419 M 342.30851,1304.9705 M 342.02958,1305.3394 M 351.7243,1303.1364 M 352.02332,1302.7835 M 352.40347,1302.5201 M 352.83884,1302.3641 M 353.29976,1302.3261 M 353.75483,1302.4081 M 354.17303,1302.6056 M 354.52588,1302.9046 M 354.78929,1303.2848 M 354.94533,1303.7201 M 354.98333,1304.1811 M 354.90083,1304.6361 M 354.70333,1305.0543 M 354.40431,1305.4072 M 354.02416,1305.6706 M 353.58879,1305.8266 M 353.2138,1305.8666 M 352.6728,1305.7816 M 352.2546,1305.5841 M 351.90176,1305.2851 M 351.63835,1304.905 M 351.4823,1304.4696 M 351.4443,1304.0087 M 351.5268,1303.5536 M 327.25795,1302.5874 M 327.67976,1302.3978 M 328.13629,1302.3238 M 328.59643,1302.3708 M 329.02881,1302.5349 M 329.40398,1302.8054 M 329.69637,1303.1637 M 329.88605,1303.5855 M 329.96005,1304.0421 M 329.91335,1304.5022 M 329.74919,1304.9346 M 329.47872,1305.3098 M 329.12038,1305.6021 M 328.69856,1305.7918 M 328.18915,1305.8668 M 327.78192,1305.8198 M 327.34954,1305.6557 M 326.97437,1305.3852 M 326.68198,1305.0268 M 326.4923,1304.605 M 326.4183,1304.1485 M 326.465,1303.6884 M 326.62916,1303.256 M 326.89963,1302.8808"
       style="fill:none;stroke:#ff0000;stroke-width:1;stroke-linecap:round;stroke-linejoin:round;stroke-miterlimit:4;stroke-dasharray:none;stroke-opacity:1"
       id="face2-interior"
       inkscape:connector-curvature="0" />
    <path
       d="M 310.47265,1197.7963 M 363.6223,1311.1822 M 363.6223,1300.5523 M 374.25223,1295.2373 M 374.25223,1281.0641 M 363.6223,1275.7491 M 363.6223,1250.9459 M 374.25223,1245.631 M 374.25223,1231.4577 M 363.6223,1226.1428 M 363.6223,1215.5128 M 345.90575,1197.7963 M 332.58466,1206.4915 M 332.19361,1206.2446 M 331.87982,1205.9049 M 331.66463,1205.4955 M 331.56272,1205.0443 M 331.56872,1204.8829 M 331.58072,1204.5822 M 331.71806,1204.1406 M 331.96499,1203.7495 M 332.30472,1203.4357 M 332.7141,1203.2205 M 333.16511,1203.1186 M 333.32655,1203.1086 M 333.62723,1203.1346 M 334.06887,1203.2719 M 334.45992,1203.5189 M 334.77372,1203.8586 M 334.9889,1204.268 M 335.09081,1204.7191 M 335.08481,1204.8804 M 335.07281,1205.1811 M 334.93547,1205.6227 M 334.68854,1206.0138 M 334.34883,1206.3276 M 333.93944,1206.5427 M 333.48831,1206.6447 M 333.02618,1206.6257 M 346.79158,1206.4142 M 346.36429,1206.5912 M 345.90575,1206.6512 M 345.44721,1206.5912 M 345.01992,1206.4142 M 344.653,1206.1326 M 344.37145,1205.7657 M 344.19446,1205.3384 M 344.13406,1204.8799 M 344.19446,1204.4214 M 344.37144,1203.9941 M 344.65299,1203.6271 M 345.01991,1203.3456 M 345.4472,1203.1686 M 345.90574,1203.1086 M 346.36428,1203.1686 M 346.79157,1203.3456 M 347.15849,1203.6272 M 347.44004,1203.9941 M 347.61703,1204.4214 M 347.67743,1204.8799 M 347.61703,1205.3384 M 347.44005,1205.7657 M 347.1585,1206.1326 M 320.58126,1206.6178 M 320.14318,1206.4695 M 319.75842,1206.2129 M 319.4532,1205.8654 M 319.24829,1205.4508 M 319.15769,1204.9973 M 319.16569,1204.8799 M 319.18799,1204.5357 M 319.33627,1204.0977 M 319.59288,1203.7129 M 319.94034,1203.4076 M 320.35496,1203.2027 M 320.80849,1203.1117 M 320.92583,1203.1117 M 321.27,1203.1457 M 321.70807,1203.294 M 322.09284,1203.5506 M 322.3981,1203.898 M 322.60301,1204.3127 M 322.69361,1204.7662 M 322.68561,1204.8837 M 322.66331,1205.2279 M 322.51502,1205.6659 M 322.25841,1206.0507 M 321.91096,1206.356 M 321.49633,1206.5609 M 321.0428,1206.6519"
       style="fill:none;stroke:#ff0000;stroke-width:1;stroke-linecap:round;stroke-linejoin:round;stroke-miterlimit:4;stroke-dasharray:none;stroke-opacity:1"
       id="face4-interior"
       inkscape:connector-curvature="0" />
    <path
       d="M 299.84272,1277.5207 M 310.47265,1282.8357 M 310.47265,1293.4656 M 328.1892,1311.1822 M 363.6223,1311.1822 M 310.47265,1197.7963 M 310.47265,1208.4262 M 299.84272,1213.7412 M 299.84272,1227.9144 M 310.47265,1233.2294 M 310.47265,1258.0325 M 299.84272,1263.3475 M 341.66467,1305.6235 M 341.23865,1305.8036 M 340.76795,1305.8676 M 340.32159,1305.8106 M 339.89306,1305.6366 M 339.52414,1305.3577 M 339.24001,1304.9928 M 339.05997,1304.5668 M 338.99637,1304.1087 M 339.05347,1303.6497 M 339.22741,1303.2212 M 339.50634,1302.8523 M 339.87125,1302.5681 M 340.29727,1302.3881 M 340.75537,1302.3241 M 341.21433,1302.3811 M 341.64286,1302.555 M 342.01178,1302.834 M 342.29591,1303.1989 M 342.47595,1303.6249 M 342.53955,1304.083 M 342.48245,1304.5419 M 342.30851,1304.9705 M 342.02958,1305.3394 M 351.7243,1303.1364 M 352.02332,1302.7835 M 352.40347,1302.5201 M 352.83884,1302.3641 M 353.29976,1302.3261 M 353.75483,1302.4081 M 354.17303,1302.6056 M 354.52588,1302.9046 M 354.78929,1303.2848 M 354.94533,1303.7201 M 354.98333,1304.1811 M 354.90083,1304.6361 M 354.70333,1305.0543 M 354.40431,1305.4072 M 354.02416,1305.6706 M 353.58879,1305.8266 M 353.2138,1305.8666 M 352.6728,1305.7816 M 352.2546,1305.5841 M 351.90176,1305.2851 M 351.63835,1304.905 M 351.4823,1304.4696 M 351.4443,1304.0087 M 351.5268,1303.5536 M 327.25795,1302.5874 M 327.67976,1302.3978 M 328.13629,1302.3238 M 328.59643,1302.3708 M 329.02881,1302.5349 M 329.40398,1302.8054 M 329.69637,1303.1637 M 329.88605,1303.5855 M 329.96005,1304.0421 M 329.91335,1304.5022 M 329.74919,1304.9346 M 329.47872,1305.3098 M 329.12038,1305.6021 M 328.69856,1305.7918 M 328.18915,1305.8668 M 327.78192,1305.8198 M 327.34954,1305.6557 M 326.97437,1305.3852 M 326.68198,1305.0268 M 326.4923,1304.605 M 326.4183,1304.1485 M 326.465,1303.6884 M 326.62916,1303.256 M 326.89963,1302.8808"
       style="fill:none;stroke:#ff0000;stroke-width:1;stroke-linecap:round;stroke-linejoin:round;stroke-miterlimit:4;stroke-dasharray:none;stroke-opacity:1"
       id="path26"
       inkscape:connector-curvature="0" />
    <path
       d="M 310.47265,1197.7963 M 363.6223,1311.1822 M 363.6223,1300.5523 M 374.25223,1295.2373 M 374.25223,1281.0641 M 363.6223,1275.7491 M 363.6223,1250.9459 M 374.25223,1245.631 M 374.25223,1231.4577 M 363.6223,1226.1428 M 363.6223,1215.5128 M 345.90575,1197.7963 M 332.58466,1206.4915 M 332.19361,1206.2446 M 331.87982,1205.9049 M 331.66463,1205.4955 M 331.56272,1205.0443 M 331.56872,1204.8829 M 331.58072,1204.5822 M 331.71806,1204.1406 M 331.96499,1203.7495 M 332.30472,1203.4357 M 332.7141,1203.2205 M 333.16511,1203.1186 M 333.32655,1203.1086 M 333.62723,1203.1346 M 334.06887,1203.2719 M 334.45992,1203.5189 M 334.77372,1203.8586 M 334.9889,1204.268 M 335.09081,1204.7191 M 335.08481,1204.8804 M 335.07281,1205.1811 M 334.93547,1205.6227 M 334.68854,1206.0138 M 334.34883,1206.3276 M 333.93944,1206.5427 M 333.48831,1206.6447 M 333.02618,1206.6257 M 346.79158,1206.4142 M 346.36429,1206.5912 M 345.90575,1206.6512 M 345.44721,1206.5912 M 345.01992,1206.4142 M 344.653,1206.1326 M 344.37145,1205.7657 M 344.19446,1205.3384 M 344.13406,1204.8799 M 344.19446,1204.4214 M 344.37144,1203.9941 M 344.65299,1203.6271 M 345.01991,1203.3456 M 345.4472,1203.1686 M 345.90574,1203.1086 M 346.36428,1203.1686 M 346.79157,1203.3456 M 347.15849,1203.6272 M 347.44004,1203.9941 M 347.61703,1204.4214 M 347.67743,1204.8799 M 347.61703,1205.3384 M 347.44005,1205.7657 M 347.1585,1206.1326 M 320.58126,1206.6178 M 320.14318,1206.4695 M 319.75842,1206.2129 M 319.4532,1205.8654 M 319.24829,1205.4508 M 319.15769,1204.9973 M 319.16569,1204.8799 M 319.18799,1204.5357 M 319.33627,1204.0977 M 319.59288,1203.7129 M 319.94034,1203.4076 M 320.35496,1203.2027 M 320.80849,1203.1117 M 320.92583,1203.1117 M 321.27,1203.1457 M 321.70807,1203.294 M 322.09284,1203.5506 M 322.3981,1203.898 M 322.60301,1204.3127 M 322.69361,1204.7662 M 322.68561,1204.8837 M 322.66331,1205.2279 M 322.51502,1205.6659 M 322.25841,1206.0507 M 321.91096,1206.356 M 321.49633,1206.5609 M 321.0428,1206.6519"
       style="fill:none;stroke:#ff0000;stroke-width:1;stroke-linecap:round;stroke-linejoin:round;stroke-miterlimit:4;stroke-dasharray:none;stroke-opacity:1"
       id="path30"
       inkscape:connector-curvature="0" />
  </g>
  <g
     id="g4973"
     transform="matrix(0,-0.99999994,1.0000001,0,200.72336,363.79162)"
     style="stroke:#ff0000;stroke-opacity:1">
    <path
       inkscape:connector-curvature="0"
       id="path9863"
       style="fill:none;stroke:#ff0000;stroke-width:1.04999995;stroke-linecap:round;stroke-linejoin:round;stroke-miterlimit:10;stroke-dasharray:none;stroke-opacity:1"
       d="M 335.32524,139.90016 213.00013,94.750124" />
    <path
       inkscape:connector-curvature="0"
       id="path9865"
       style="fill:none;stroke:#ff0000;stroke-width:1.04999995;stroke-linecap:round;stroke-linejoin:round;stroke-miterlimit:10;stroke-dasharray:none;stroke-opacity:1"
       d="M 243.75015,152.35017 243.75015,146.72517" />
    <path
       inkscape:connector-curvature="0"
       id="path9867"
       style="fill:none;stroke:#ff0000;stroke-width:1.04999995;stroke-linecap:round;stroke-linejoin:round;stroke-miterlimit:10;stroke-dasharray:none;stroke-opacity:1"
       d="M 329.85023,163.60018 304.20021,163.60018" />
    <path
       inkscape:connector-curvature="0"
       id="path9869"
       style="fill:none;stroke:#ff0000;stroke-width:1.04999995;stroke-linecap:round;stroke-linejoin:round;stroke-miterlimit:10;stroke-dasharray:none;stroke-opacity:1"
       d="M 273.97518,163.60018 248.32516,163.60018" />
    <path
       inkscape:connector-curvature="0"
       id="path9871"
       style="fill:none;stroke:#ff0000;stroke-width:1.04999995;stroke-linecap:round;stroke-linejoin:round;stroke-miterlimit:10;stroke-dasharray:none;stroke-opacity:1"
       d="M 338.77524,143.57517 339.75024,146.72517 334.42524,146.72517" />
    <path
       inkscape:connector-curvature="0"
       id="path9873"
       style="fill:none;stroke:#ff0000;stroke-width:1.04999995;stroke-linecap:round;stroke-linejoin:round;stroke-miterlimit:10;stroke-dasharray:none;stroke-opacity:1"
       d="M 278.55019,152.12517 299.6252,152.12517" />
    <path
       inkscape:connector-curvature="0"
       id="path9875"
       style="fill:none;stroke:#ff0000;stroke-width:1.04999995;stroke-linecap:round;stroke-linejoin:round;stroke-miterlimit:10;stroke-dasharray:none;stroke-opacity:1"
       d="M 329.85023,163.60018 334.42524,152.35017" />
    <path
       inkscape:connector-curvature="0"
       id="path9877"
       style="fill:none;stroke:#ff0000;stroke-width:1.04999995;stroke-linecap:round;stroke-linejoin:round;stroke-miterlimit:10;stroke-dasharray:none;stroke-opacity:1"
       d="M 205.42512,129.85015 205.42512,100.00013" />
    <g
       transform="matrix(0,-0.07500006,-0.07500007,0,213.93763,101.61263)"
       id="g9915"
       style="stroke:#ff0000;stroke-opacity:1">
      <path
         inkscape:connector-curvature="0"
         id="path9917"
         style="fill:none;stroke:#ff0000;stroke-width:14;stroke-linecap:round;stroke-linejoin:round;stroke-miterlimit:10;stroke-dasharray:none;stroke-opacity:1"
         d="M 0,-24.5 C 13.53098,-24.5 24.5,-13.53098 24.5,0 24.5,13.53098 13.53098,24.5 0,24.5 -13.53098,24.5 -24.5,13.53098 -24.5,0 -24.5,-13.53098 -13.53098,-24.5 0,-24.5" />
    </g>
    <g
       transform="matrix(0,-0.07500006,-0.07500007,0,211.08763,99.962628)"
       id="g9919"
       style="stroke:#ff0000;stroke-opacity:1">
      <path
         inkscape:connector-curvature="0"
         id="path9921"
         style="fill:none;stroke:#ff0000;stroke-width:14;stroke-linecap:round;stroke-linejoin:round;stroke-miterlimit:10;stroke-dasharray:none;stroke-opacity:1"
         d="M 70.82191,-26.16307 C 79.3802,-2.99628 76.06684,22.89171 61.94983,43.15633 47.83281,63.42095 24.69706,75.5 0,75.5" />
    </g>
    <g
       transform="matrix(0,-0.07500006,-0.07500007,0,333.41273,145.18767)"
       id="g9923"
       style="stroke:#ff0000;stroke-opacity:1">
      <path
         inkscape:connector-curvature="0"
         id="path9925"
         style="fill:none;stroke:#ff0000;stroke-width:14;stroke-linecap:round;stroke-linejoin:round;stroke-miterlimit:10;stroke-dasharray:none;stroke-opacity:1"
         d="M 22.29716,-72.13242 C 44.74345,-65.19395 62.68044,-48.20156 70.82191,-26.16307" />
    </g>
    <path
       inkscape:connector-curvature="0"
       id="path9927"
       style="fill:none;stroke:#ff0000;stroke-width:1.04999995;stroke-linecap:round;stroke-linejoin:round;stroke-miterlimit:10;stroke-dasharray:none;stroke-opacity:1"
       d="M 273.97518,163.60018 278.55019,152.12517" />
    <path
       inkscape:connector-curvature="0"
       id="path9933"
       style="fill:none;stroke:#ff0000;stroke-width:1.04999995;stroke-linecap:round;stroke-linejoin:round;stroke-miterlimit:10;stroke-dasharray:none;stroke-opacity:1"
       d="M 243.75015,152.35017 248.32516,163.60018" />
    <g
       transform="matrix(0,-0.07500006,-0.07500007,0,210.03762,156.73767)"
       id="g9935"
       style="stroke:#ff0000;stroke-opacity:1">
      <path
         inkscape:connector-curvature="0"
         id="path9937"
         style="fill:none;stroke:#ff0000;stroke-width:14;stroke-linecap:round;stroke-linejoin:round;stroke-miterlimit:10;stroke-dasharray:none;stroke-opacity:1"
         d="M 134.72206,-268.60791 C 195.24011,-238.2547 243.7348,-188.35432 272.34683,-126.99389" />
    </g>
    <path
       inkscape:connector-curvature="0"
       id="path9939"
       style="fill:none;stroke:#ff0000;stroke-width:1.04999995;stroke-linecap:round;stroke-linejoin:round;stroke-miterlimit:10;stroke-dasharray:none;stroke-opacity:1"
       d="M 299.6252,152.12517 304.20021,163.60018" />
    <path
       inkscape:connector-curvature="0"
       id="path9969"
       style="fill:none;stroke:#ff0000;stroke-width:1.04999995;stroke-linecap:round;stroke-linejoin:round;stroke-miterlimit:10;stroke-dasharray:none;stroke-opacity:1"
       d="M 205.42512,129.85015 219.52513,136.45016" />
    <path
       inkscape:connector-curvature="0"
       id="path9971"
       style="fill:none;stroke:#ff0000;stroke-width:1.04999995;stroke-linecap:round;stroke-linejoin:round;stroke-miterlimit:10;stroke-dasharray:none;stroke-opacity:1"
       d="M 230.17514,146.72517 243.75015,146.72517" />
    <path
       inkscape:connector-curvature="0"
       id="path9973"
       style="fill:none;stroke:#ff0000;stroke-width:1.04999995;stroke-linecap:round;stroke-linejoin:round;stroke-miterlimit:10;stroke-dasharray:none;stroke-opacity:1"
       d="M 334.42524,152.35017 334.42524,146.72517" />
    <g
       transform="matrix(0,-0.07500006,-0.07500007,0,213.93763,124.18765)"
       id="g9987"
       style="stroke:#ff0000;stroke-opacity:1">
      <path
         inkscape:connector-curvature="0"
         id="path9989"
         style="fill:none;stroke:#ff0000;stroke-width:14;stroke-linecap:round;stroke-linejoin:round;stroke-miterlimit:10;stroke-dasharray:none;stroke-opacity:1"
         d="M 0,-24.5 C 13.53098,-24.5 24.5,-13.53098 24.5,0 24.5,13.53098 13.53098,24.5 0,24.5 -13.53098,24.5 -24.5,13.53098 -24.5,0 -24.5,-13.53098 -13.53098,-24.5 0,-24.5" />
    </g>
    <g
       transform="matrix(0,-0.07500006,-0.07500007,0,213.93763,112.93764)"
       id="g9993"
       style="stroke:#ff0000;stroke-opacity:1">
      <path
         inkscape:connector-curvature="0"
         id="path9995"
         style="fill:none;stroke:#ff0000;stroke-width:14;stroke-linecap:round;stroke-linejoin:round;stroke-miterlimit:10;stroke-dasharray:none;stroke-opacity:1"
         d="M 0,-24.5 C 13.53098,-24.5 24.5,-13.53098 24.5,0 24.5,13.53098 13.53098,24.5 0,24.5 -13.53098,24.5 -24.5,13.53098 -24.5,0 -24.5,-13.53098 -13.53098,-24.5 0,-24.5" />
    </g>
  </g>
  <g
     id="g4935-6-6"
     transform="translate(539.0249,11.586071)"
     style="stroke:#ff0000;stroke-opacity:1">
    <path
       inkscape:connector-curvature="0"
       id="path9929-5-4"
       style="fill:none;stroke:#ff0000;stroke-width:1.04999995;stroke-linecap:round;stroke-linejoin:round;stroke-miterlimit:10;stroke-dasharray:none;stroke-opacity:1"
       d="M 74.625003,165.77518 74.625003,148.90017" />
    <path
       inkscape:connector-curvature="0"
       id="path9931-6-0"
       style="fill:none;stroke:#ff0000;stroke-width:1.04999995;stroke-linecap:round;stroke-linejoin:round;stroke-miterlimit:10;stroke-dasharray:none;stroke-opacity:1"
       d="M -91.350137,185.5002 88.650023,185.5002" />
    <g
       transform="matrix(0,-0.07500006,-0.07500007,0,43.687483,47.612584)"
       id="g9941-2-0"
       style="stroke:#ff0000;stroke-opacity:1">
      <path
         inkscape:connector-curvature="0"
         id="path9943-2-6"
         style="fill:none;stroke:#ff0000;stroke-width:14;stroke-linecap:round;stroke-linejoin:round;stroke-miterlimit:10;stroke-dasharray:none;stroke-opacity:1"
         d="M 0,-103.5 C 57.16148,-103.5 103.5,-57.16148 103.5,0 103.5,57.16148 57.16148,103.5 0,103.5 -57.16148,103.5 -103.5,57.16148 -103.5,0 -103.5,-57.16148 -57.16148,-103.5 0,-103.5" />
    </g>
    <path
       inkscape:connector-curvature="0"
       id="path9991-9-8"
       style="fill:none;stroke:#ff0000;stroke-width:1.04999995;stroke-linecap:round;stroke-linejoin:round;stroke-miterlimit:10;stroke-dasharray:none;stroke-opacity:1"
       d="M 52.124983,143.27517 69.000003,143.27517" />
    <g
       transform="matrix(0,-0.07500006,-0.07500007,0,69.037503,148.86266)"
       id="g9997-0-9"
       style="stroke:#ff0000;stroke-opacity:1">
      <path
         inkscape:connector-curvature="0"
         id="path9999-4-8"
         style="fill:none;stroke:#ff0000;stroke-width:14;stroke-linecap:round;stroke-linejoin:round;stroke-miterlimit:10;stroke-dasharray:none;stroke-opacity:1"
         d="M 0,-75.5 C 41.6975,-75.5 75.5,-41.6975 75.5,0" />
    </g>
    <g
       transform="matrix(0,-0.07500006,-0.07500007,0,52.162483,165.73767)"
       id="g10001-1-2"
       style="stroke:#ff0000;stroke-opacity:1">
      <path
         inkscape:connector-curvature="0"
         id="path10003-1-4"
         style="fill:none;stroke:#ff0000;stroke-width:14;stroke-linecap:round;stroke-linejoin:round;stroke-miterlimit:10;stroke-dasharray:none;stroke-opacity:1"
         d="M 0,75.5 C -41.6975,75.5 -75.5,41.6975 -75.5,0" />
    </g>
    <path
       inkscape:connector-curvature="0"
       id="path10005-0-8"
       style="fill:none;stroke:#ff0000;stroke-width:1.04999995;stroke-linecap:round;stroke-linejoin:round;stroke-miterlimit:10;stroke-dasharray:none;stroke-opacity:1"
       d="M 52.124983,171.40019 69.000003,171.40019" />
    <path
       inkscape:connector-curvature="0"
       id="path10007-2-5"
       style="fill:none;stroke:#ff0000;stroke-width:1.04999995;stroke-linecap:round;stroke-linejoin:round;stroke-miterlimit:10;stroke-dasharray:none;stroke-opacity:1"
       d="M 46.499983,165.77518 46.499983,148.90017" />
    <path
       inkscape:connector-curvature="0"
       id="path10009-4-2"
       style="fill:none;stroke:#ff0000;stroke-width:1.04999995;stroke-linecap:round;stroke-linejoin:round;stroke-miterlimit:10;stroke-dasharray:none;stroke-opacity:1"
       d="M 88.650023,185.5002 88.650023,33.550073" />
    <g
       transform="matrix(0,-0.07500006,-0.07500007,0,52.162483,148.86266)"
       id="g10011-8-6"
       style="stroke:#ff0000;stroke-opacity:1">
      <path
         inkscape:connector-curvature="0"
         id="path10013-9-4"
         style="fill:none;stroke:#ff0000;stroke-width:14;stroke-linecap:round;stroke-linejoin:round;stroke-miterlimit:10;stroke-dasharray:none;stroke-opacity:1"
         d="M 75.5,0 C 75.5,41.6975 41.6975,75.5 0,75.5" />
    </g>
    <path
       inkscape:connector-curvature="0"
       id="path10015-9-8"
       style="fill:none;stroke:#ff0000;stroke-width:1.04999995;stroke-linecap:round;stroke-linejoin:round;stroke-miterlimit:10;stroke-dasharray:none;stroke-opacity:1"
       d="M 88.650023,33.550073 -91.350137,33.550073" />
    <g
       transform="matrix(0,-0.07500006,-0.07500007,0,-1.3125569,109.48763)"
       id="g10017-0-9"
       style="stroke:#ff0000;stroke-opacity:1">
      <path
         inkscape:connector-curvature="0"
         id="path10019-9-3"
         style="fill:none;stroke:#ff0000;stroke-width:14;stroke-linecap:round;stroke-linejoin:round;stroke-miterlimit:10;stroke-dasharray:none;stroke-opacity:1"
         d="M 0,-243.5 C 134.48134,-243.5 243.5,-134.48134 243.5,0 243.5,134.48134 134.48134,243.5 0,243.5 -134.48134,243.5 -243.5,134.48134 -243.5,0 -243.5,-134.48134 -134.48134,-243.5 0,-243.5" />
    </g>
    <g
       transform="matrix(0,-0.07500006,-0.07500007,0,69.037503,165.73767)"
       id="g10021-1-6"
       style="stroke:#ff0000;stroke-opacity:1">
      <path
         inkscape:connector-curvature="0"
         id="path10023-4-2"
         style="fill:none;stroke:#ff0000;stroke-width:14;stroke-linecap:round;stroke-linejoin:round;stroke-miterlimit:10;stroke-dasharray:none;stroke-opacity:1"
         d="M -75.5,0 C -75.5,-41.6975 -41.6975,-75.5 0,-75.5" />
    </g>
    <g
       transform="matrix(0,-0.07500006,-0.07500007,0,-46.312597,47.612584)"
       id="g10025-2-2"
       style="stroke:#ff0000;stroke-opacity:1">
      <path
         inkscape:connector-curvature="0"
         id="path10027-2-5"
         style="fill:none;stroke:#ff0000;stroke-width:14;stroke-linecap:round;stroke-linejoin:round;stroke-miterlimit:10;stroke-dasharray:none;stroke-opacity:1"
         d="M 0,-103.5 C 57.16148,-103.5 103.5,-57.16148 103.5,0 103.5,57.16148 57.16148,103.5 0,103.5 -57.16148,103.5 -103.5,57.16148 -103.5,0 -103.5,-57.16148 -57.16148,-103.5 0,-103.5" />
    </g>
    <path
       inkscape:connector-curvature="0"
       id="path10029-4-8"
       style="fill:none;stroke:#ff0000;stroke-width:1.04999995;stroke-linecap:round;stroke-linejoin:round;stroke-miterlimit:10;stroke-dasharray:none;stroke-opacity:1"
       d="M -91.350137,33.550073 -91.350137,185.5002" />
    <g
       transform="matrix(0,-0.07500006,-0.07500007,0,22.537463,85.637616)"
       id="g10031-1-9"
       style="stroke:#ff0000;stroke-opacity:1">
      <path
         inkscape:connector-curvature="0"
         id="path10033-7-7"
         style="fill:none;stroke:#ff0000;stroke-width:14;stroke-linecap:round;stroke-linejoin:round;stroke-miterlimit:10;stroke-dasharray:none;stroke-opacity:1"
         d="M 0,-18.5 C 10.21727,-18.5 18.5,-10.21727 18.5,0 18.5,10.21727 10.21727,18.5 0,18.5 -10.21727,18.5 -18.5,10.21727 -18.5,0 -18.5,-10.21727 -10.21727,-18.5 0,-18.5" />
    </g>
    <g
       transform="matrix(0,-0.07500006,-0.07500007,0,58.912493,109.48763)"
       id="g10035-8-7"
       style="stroke:#ff0000;stroke-opacity:1">
      <path
         inkscape:connector-curvature="0"
         id="path10037-1-5"
         style="fill:none;stroke:#ff0000;stroke-width:14;stroke-linecap:round;stroke-linejoin:round;stroke-miterlimit:10;stroke-dasharray:none;stroke-opacity:1"
         d="M 0,-18.5 C 10.21727,-18.5 18.5,-10.21727 18.5,0 18.5,10.21727 10.21727,18.5 0,18.5 -10.21727,18.5 -18.5,10.21727 -18.5,0 -18.5,-10.21727 -10.21727,-18.5 0,-18.5" />
    </g>
    <g
       transform="matrix(-0.07500007,0,0,0.07500006,-25.162578,85.637616)"
       id="g10039-2-3"
       style="stroke:#ff0000;stroke-opacity:1">
      <path
         inkscape:connector-curvature="0"
         id="path10041-0-7"
         style="fill:none;stroke:#ff0000;stroke-width:14;stroke-linecap:round;stroke-linejoin:round;stroke-miterlimit:10;stroke-dasharray:none;stroke-opacity:1"
         d="M 0,-18.5 C 10.21727,-18.5 18.5,-10.21727 18.5,0 18.5,10.21727 10.21727,18.5 0,18.5 -10.21727,18.5 -18.5,10.21727 -18.5,0 -18.5,-10.21727 -10.21727,-18.5 0,-18.5" />
    </g>
    <g
       transform="matrix(-0.07500007,0,0,0.07500006,-1.3125569,49.262586)"
       id="g10043-7-9"
       style="stroke:#ff0000;stroke-opacity:1">
      <path
         inkscape:connector-curvature="0"
         id="path10045-7-0"
         style="fill:none;stroke:#ff0000;stroke-width:14;stroke-linecap:round;stroke-linejoin:round;stroke-miterlimit:10;stroke-dasharray:none;stroke-opacity:1"
         d="M 0,-18.5 C 10.21727,-18.5 18.5,-10.21727 18.5,0 18.5,10.21727 10.21727,18.5 0,18.5 -10.21727,18.5 -18.5,10.21727 -18.5,0 -18.5,-10.21727 -10.21727,-18.5 0,-18.5" />
    </g>
    <g
       transform="matrix(0,0.07500006,0.07500007,0,-25.162578,133.33766)"
       id="g10047-5-1"
       style="stroke:#ff0000;stroke-opacity:1">
      <path
         inkscape:connector-curvature="0"
         id="path10049-1-8"
         style="fill:none;stroke:#ff0000;stroke-width:14;stroke-linecap:round;stroke-linejoin:round;stroke-miterlimit:10;stroke-dasharray:none;stroke-opacity:1"
         d="M 0,-18.5 C 10.21727,-18.5 18.5,-10.21727 18.5,0 18.5,10.21727 10.21727,18.5 0,18.5 -10.21727,18.5 -18.5,10.21727 -18.5,0 -18.5,-10.21727 -10.21727,-18.5 0,-18.5" />
    </g>
    <g
       transform="matrix(0,0.07500006,0.07500007,0,-61.537611,109.48763)"
       id="g10051-3-7"
       style="stroke:#ff0000;stroke-opacity:1">
      <path
         inkscape:connector-curvature="0"
         id="path10053-9-0"
         style="fill:none;stroke:#ff0000;stroke-width:14;stroke-linecap:round;stroke-linejoin:round;stroke-miterlimit:10;stroke-dasharray:none;stroke-opacity:1"
         d="M 0,-18.5 C 10.21727,-18.5 18.5,-10.21727 18.5,0 18.5,10.21727 10.21727,18.5 0,18.5 -10.21727,18.5 -18.5,10.21727 -18.5,0 -18.5,-10.21727 -10.21727,-18.5 0,-18.5" />
    </g>
    <path
       inkscape:connector-curvature="0"
       id="path10055-8-1"
       style="fill:none;stroke:#ff0000;stroke-width:1.04999995;stroke-linecap:round;stroke-linejoin:round;stroke-miterlimit:10;stroke-dasharray:none;stroke-opacity:1"
       d="M 22.537463,134.72516 C 23.303763,134.72516 23.924963,134.10393 23.924963,133.33766 23.924963,132.57138 23.303763,131.95016 22.537463,131.95016 21.771173,131.95016 21.149963,132.57138 21.149963,133.33766 21.149963,134.10393 21.771173,134.72516 22.537463,134.72516" />
    <path
       inkscape:connector-curvature="0"
       id="path10057-3-9"
       style="fill:none;stroke:#ff0000;stroke-width:1.04999995;stroke-linecap:round;stroke-linejoin:round;stroke-miterlimit:10;stroke-dasharray:none;stroke-opacity:1"
       d="M -1.3125569,171.10019 C -0.54625694,171.10019 0.07494306,170.47896 0.07494306,169.71269 0.07494306,168.94641 -0.54625694,168.32519 -1.3125569,168.32519 -2.0788569,168.32519 -2.7000569,168.94641 -2.7000569,169.71269 -2.7000569,170.47896 -2.0788569,171.10019 -1.3125569,171.10019" />
  </g>
  <path
     id="path9995-3-6-8-2-9"
     style="fill:none;stroke:#ff0000;stroke-width:1.05000103;stroke-linecap:round;stroke-linejoin:round;stroke-miterlimit:10;stroke-dasharray:none;stroke-opacity:1"
     d="M 208.21369,153.64259 C 207.19887,153.64259 206.37619,154.46527 206.37619,155.48009 206.37619,156.49491 207.19887,157.31759 208.21369,157.31759 209.22851,157.31759 210.05119,156.49491 210.05119,155.48009 210.05119,154.46527 209.22851,153.64259 208.21369,153.64259 M 219.4637,153.64259 C 218.44888,153.64259 217.6262,154.46527 217.6262,155.48009 217.6262,156.49491 218.44888,157.31759 219.4637,157.31759 220.47853,157.31759 221.3012,156.49491 221.3012,155.48009 221.3012,154.46527 220.47853,153.64259 219.4637,153.64259 M 247.62623,34.992479 242.00122,34.992479 M 242.00122,139.24258 242.00122,125.66757 M 225.1262,163.9926 231.72621,149.89259 M 247.40123,69.792519 258.87624,65.217509 M 241.90956,139.23449 C 237.3707,141.51098 233.7336,145.25351 231.58769,149.85555 M 247.62623,125.66757 258.87624,121.09256 M 258.87624,95.442539 247.40123,90.867529 M 238.79144,30.595049 C 237.10796,31.115439 235.76269,32.389869 235.15208,34.042759 M 189.92703,156.36786 C 189.28516,158.10537 189.53366,160.04697 190.59243,161.56682 191.65121,163.08667 193.3864,163.99259 195.23868,163.99259 M 196.88868,153.64259 C 195.87385,153.64259 195.05118,154.46527 195.05118,155.48009 195.05118,156.49491 195.87385,157.31759 196.88868,157.31759 197.9035,157.31759 198.72618,156.49491 198.72618,155.48009 198.72618,154.46527 197.9035,153.64259 196.88868,153.64259 M 225.1262,163.9926 195.27618,163.9926 M 258.87624,39.567489 247.62623,34.992479 M 247.40123,90.867529 247.40123,69.792519 M 238.85122,30.642479 242.00122,29.667479 242.00122,34.992479 M 258.87624,95.442539 258.87624,121.09256 M 258.87624,39.567489 258.87624,65.217509 M 247.62623,125.66757 242.00122,125.66757 M 235.17621,34.092479 190.02617,156.41759 M 216.77884,37.107299 C 217.79366,37.107299 218.61634,36.284619 218.61634,35.269799 218.61634,34.254969 217.79366,33.432299 216.77884,33.432299 215.76401,33.432299 214.94134,34.254969 214.94134,35.269799 214.94134,36.284619 215.76401,37.107299 216.77884,37.107299 M 205.52883,37.107299 C 206.54365,37.107299 207.36633,36.284619 207.36633,35.269799 207.36633,34.254969 206.54365,33.432299 205.52883,33.432299 204.514,33.432299 203.69133,34.254969 203.69133,35.269799 203.69133,36.284619 204.514,37.107299 205.52883,37.107299 M 177.36631,155.75742 182.99131,155.75742 M 182.99131,51.507309 182.99131,65.082319 M 199.86633,26.757289 193.26632,40.857299 M 177.59131,120.95737 166.1163,125.53239 M 183.08297,51.515409 C 187.62183,49.238909 191.25893,45.496379 193.40484,40.894339 M 177.36631,65.082319 166.1163,69.657329 M 166.1163,95.307349 177.59131,99.882359 M 186.2011,160.15484 C 187.88457,159.63446 189.22984,158.36003 189.84046,156.70714 M 235.0655,34.382029 C 235.70737,32.644519 235.45887,30.702919 234.40009,29.183069 233.34132,27.663219 231.60613,26.757299 229.75385,26.757299 M 228.10385,37.107299 C 229.11867,37.107299 229.94135,36.284619 229.94135,35.269799 229.94135,34.254969 229.11867,33.432299 228.10385,33.432299 227.08903,33.432299 226.26635,34.254969 226.26635,35.269799 226.26635,36.284619 227.08903,37.107299 228.10385,37.107299 M 199.86633,26.757289 229.71635,26.757289 M 166.1163,151.18241 177.36631,155.75742 M 177.59131,99.882359 177.59131,120.95737 M 186.14131,160.10742 182.99131,161.08242 182.99131,155.75742 M 166.1163,95.307349 166.1163,69.657329 M 166.1163,151.18241 166.1163,125.53239 M 177.36631,65.082319 182.99131,65.082319"
     inkscape:connector-curvature="0"
     sodipodi:nodetypes="csssccsssccccccccccccccccccsccssscccccccccccccccccccsssccsssccccccccccccccccccsccssscccccccccccccccc" />
</svg>
