<?xml version="1.0" encoding="UTF-8" standalone="no"?>
<svg
   xmlns:dc="http://purl.org/dc/elements/1.1/"
   xmlns:cc="http://creativecommons.org/ns#"
   xmlns:rdf="http://www.w3.org/1999/02/22-rdf-syntax-ns#"
   xmlns:svg="http://www.w3.org/2000/svg"
   xmlns="http://www.w3.org/2000/svg"
   xmlns:sodipodi="http://sodipodi.sourceforge.net/DTD/sodipodi-0.dtd"
   xmlns:inkscape="http://www.inkscape.org/namespaces/inkscape"
   viewBox="0 0 1536 1152"
   version="1.1"
   id="svg71"
   sodipodi:docname="brand_logo_laser.svg"
   inkscape:version="0.92.1 r"
   width="16in"
   height="12in">
  <metadata
     id="metadata75">
    <rdf:RDF>
      <cc:Work
         rdf:about="">
        <dc:format>image/svg+xml</dc:format>
        <dc:type
           rdf:resource="http://purl.org/dc/dcmitype/StillImage" />
        <dc:title>brand_logo_black_CMYK</dc:title>
      </cc:Work>
    </rdf:RDF>
  </metadata>
  <sodipodi:namedview
     pagecolor="#ffffff"
     bordercolor="#666666"
     borderopacity="1"
     objecttolerance="10"
     gridtolerance="10"
     guidetolerance="10"
     inkscape:pageopacity="0"
     inkscape:pageshadow="2"
     inkscape:window-width="1405"
     inkscape:window-height="840"
     id="namedview73"
     showgrid="false"
     inkscape:zoom="0.65975396"
     inkscape:cx="781.76105"
     inkscape:cy="1027.3137"
     inkscape:window-x="0"
     inkscape:window-y="23"
     inkscape:window-maximized="0"
     inkscape:current-layer="svg71"
     units="in"
     inkscape:document-units="in" />
  <defs
     id="defs55">
    <style
       id="style53">.a{fill:#231f20;}</style>
  </defs>
  <title
     id="title57">brand_logo_black_CMYK</title>
  <g
     id="g4577"
     transform="matrix(1.3485893,0,0,1.3485893,339.32208,358.2333)"
     style="stroke-width:1;stroke-miterlimit:4;stroke-dasharray:none">
    <path
       inkscape:connector-curvature="0"
       style="fill:none;stroke:#e70000;stroke-width:1;stroke-miterlimit:4;stroke-dasharray:none;stroke-opacity:1"
       id="path59"
       d="M 307.92838,107.96743 C 312.56838,101.21743 319.38838,98.347431 328.40838,97.087431 335.04838,96.167431 336.79838,98.787431 336.79838,101.53743 336.79838,106.13743 334.79838,107.36743 328.00838,107.95743 316.39838,108.95743 308.54838,118.28743 307.92838,130.31743 V 173.42743 C 307.92838,176.42743 307.75838,177.55743 306.82838,179.07743 A 6.21,6.21 0 0 1 296.70838,179.07743 C 295.77838,177.55743 295.60838,176.37743 295.60838,173.42743 V 105.52743 C 295.60838,102.52743 295.77838,101.39743 296.70838,99.877431 A 6.21,6.21 0 0 1 306.82838,99.877431 C 307.75838,101.39743 307.92838,102.57743 307.92838,105.52743 V 107.97743 Z"
       class="a" />
    <path
       inkscape:connector-curvature="0"
       style="fill:none;stroke:#e70000;stroke-width:1;stroke-miterlimit:4;stroke-dasharray:none;stroke-opacity:1"
       id="path61"
       d="M 370.35838,133.44743 H 395.49838 V 126.69743 C 395.49838,114.04743 389.58838,107.54743 375.07838,107.54743 366.55838,107.54743 361.82838,109.82743 356.26838,114.88743 A 7.8,7.8 0 0 1 351.11838,117.07743 5.09,5.09 0 0 1 347.40838,115.55743 5.41,5.41 0 0 1 345.88838,111.67743 C 345.88838,108.67743 348.88838,105.60743 353.81838,102.39743 359.81838,98.597431 366.30838,96.997431 375.15838,96.997431 396.58838,96.997431 407.71838,106.61743 407.71838,124.75743 V 173.43743 C 407.71838,176.43743 407.54838,177.56743 406.61838,179.08743 A 6.21,6.21 0 0 1 396.49838,179.08743 C 395.56838,177.56743 395.39838,176.38743 395.39838,173.43743 V 173.26743 C 388.64838,179.84743 382.31838,182.03743 371.60838,182.03743 360.13838,182.03743 353.21838,179.75743 347.98838,174.44743 A 24.41,24.41 0 0 1 341.65838,157.44743 C 341.66838,142.89743 352.29838,133.44743 370.35838,133.44743 Z M 372.88838,171.66743 C 379.80838,171.66743 385.38838,169.89743 390.53838,164.91743 393.40838,162.13743 395.53838,158.66743 395.53838,151.58743 V 142.72743 H 371.70838 C 359.80838,142.72743 353.70838,147.87743 353.70838,157.40743 353.70838,166.93743 359.97838,171.66743 372.88838,171.66743 Z"
       class="a" />
    <path
       inkscape:connector-curvature="0"
       style="fill:none;stroke:#e70000;stroke-width:1;stroke-miterlimit:4;stroke-dasharray:none;stroke-opacity:1"
       id="path63"
       d="M 488.30838,173.43743 C 488.30838,176.43743 488.05838,177.65743 487.20838,179.08743 A 6,6 0 0 1 482.14838,181.70743 5.84,5.84 0 0 1 477.08838,179.08743 C 476.24838,177.65743 475.98838,176.46743 475.98838,173.43743 V 130.07743 C 475.98838,115.31743 468.30838,108.07743 455.65838,107.97743 445.78838,107.97743 436.28838,116.55743 434.90838,131.07743 V 173.43743 C 434.90838,176.43743 434.65838,177.65743 433.80838,179.08743 A 6.21,6.21 0 0 1 423.68838,179.08743 C 422.84838,177.65743 422.58838,176.46743 422.58838,173.43743 V 105.60743 C 422.58838,102.60743 422.75838,101.47743 423.68838,99.957431 A 6.21,6.21 0 0 1 433.80838,99.957431 C 434.73838,101.47743 434.90838,102.65743 434.90838,105.60743 V 107.12743 A 30.46,30.46 0 0 1 458.19838,97.007431 C 467.19838,97.007431 474.56838,99.707431 479.70838,104.76743 485.61838,110.50743 488.31838,118.34743 488.31838,127.96743 V 173.43743 Z"
       class="a" />
    <path
       inkscape:connector-curvature="0"
       style="fill:none;stroke:#e70000;stroke-width:1;stroke-miterlimit:4;stroke-dasharray:none;stroke-opacity:1"
       id="path65"
       d="M 269.99838,107.82743 A 38.24,38.24 0 0 0 241.52838,95.827431 C 231.52838,95.827431 220.99838,100.27743 214.93838,106.76743 V 62.207431 C 214.93838,62.207431 215.22838,54.717431 207.93838,54.717431 201.93838,54.717431 201.93838,62.207431 201.93838,62.207431 V 138.63743 C 201.93838,168.38743 221.81838,181.69743 241.51838,181.69743 261.21838,181.69743 281.07838,168.34743 281.07838,138.63743 281.07838,126.34743 277.26838,115.67743 269.99838,107.82743 Z M 241.52838,168.69743 C 221.92838,168.69743 214.93838,153.16743 214.93838,138.62743 214.93838,120.76743 225.62838,108.76743 241.52838,108.76743 257.42838,108.76743 268.11838,120.76743 268.11838,138.62743 268.07838,153.16743 261.13838,168.69743 241.52838,168.69743 Z"
       class="a" />
    <path
       inkscape:connector-curvature="0"
       style="fill:none;stroke:#e70000;stroke-width:1;stroke-miterlimit:4;stroke-dasharray:none;stroke-opacity:1"
       id="path67"
       d="M 501.16838,138.63743 C 501.16838,168.38743 521.04838,181.69743 540.74838,181.69743 560.44838,181.69743 580.32838,168.38743 580.32838,138.63743 V 62.207431 C 580.32838,62.207431 580.32838,54.717431 574.32838,54.717431 567.05838,54.717431 567.32838,62.207431 567.32838,62.207431 V 106.71743 C 561.26838,100.22743 550.77838,95.777431 540.73838,95.777431 A 38.24,38.24 0 0 0 512.26838,107.77743 C 505.00838,115.67743 501.16838,126.34743 501.16838,138.63743 Z M 514.16838,138.63743 C 514.16838,120.77743 524.85838,108.77743 540.75838,108.77743 556.65838,108.77743 567.34838,120.77743 567.34838,138.63743 567.34838,153.16743 560.34838,168.70743 540.75838,168.70743 521.16838,168.70743 514.15838,153.16743 514.15838,138.63743 Z"
       class="a" />
    <path
       inkscape:connector-curvature="0"
       style="fill:none;stroke:#ff0000;stroke-width:1;stroke-miterlimit:4;stroke-dasharray:none;stroke-opacity:1"
       id="path69"
       d="M 97.078375,56.347431 A 10.81,10.81 0 1 1 86.258375,45.547431 10.81,10.81 0 0 1 97.078375,56.347431 Z M 86.258375,75.707431 A 11.24,11.24 0 1 0 97.498375,86.947431 11.24,11.24 0 0 0 86.258375,75.707431 Z M 86.258375,105.86743 A 11.68,11.68 0 1 0 97.938375,117.54743 11.68,11.68 0 0 0 86.258375,105.87743 Z M 86.258375,136.86743 A 11.24,11.24 0 1 0 97.498375,148.10743 11.24,11.24 0 0 0 86.258375,136.89743 Z M 86.258375,167.86743 A 10.81,10.81 0 1 0 97.078375,178.73743 10.81,10.81 0 0 0 86.258375,167.92743 Z M 116.02838,74.207431 A 12.68,12.68 0 1 0 128.70838,86.887431 12.68,12.68 0 0 0 116.02838,74.267431 Z M 116.02838,104.36743 A 13.12,13.12 0 1 0 129.14838,117.48743 13.12,13.12 0 0 0 116.02838,104.42743 Z M 116.02838,135.36743 A 12.68,12.68 0 1 0 128.70838,148.04743 12.68,12.68 0 0 0 116.02838,135.45743 Z M 146.58838,102.89743 A 14.56,14.56 0 1 0 161.14838,117.45743 14.56,14.56 0 0 0 146.58838,102.98743 Z M 56.078375,77.147431 A 9.8,9.8 0 1 0 65.878375,86.947431 9.8,9.8 0 0 0 56.078375,77.147431 Z M 56.078375,107.34743 A 10.23,10.23 0 1 0 66.308375,117.57743 10.23,10.23 0 0 0 56.078375,107.34743 Z M 56.078375,138.34743 A 9.8,9.8 0 1 0 65.878375,148.14743 9.8,9.8 0 0 0 56.078375,138.34743 Z M 25.938375,108.75743 A 8.79,8.79 0 1 0 34.728375,117.54743 8.79,8.79 0 0 0 25.938375,108.75743 Z"
       class="a" />
  </g>
  <rect
     style="fill:none;fill-opacity:1;stroke:#004600;stroke-width:1;stroke-miterlimit:4;stroke-dasharray:none;stroke-dashoffset:0;stroke-opacity:1"
     id="rect4498"
     width="768"
     height="432"
     x="357.97235"
     y="288.1506" />
</svg>
