<svg xmlns="http://www.w3.org/2000/svg" viewBox="0 0 563.19 144"><defs><style>.a{fill:#231f20;}</style></defs><title>brand_logo_black_CMYK</title><path class="a" d="M377.85,123.62c4.64-6.75,11.46-9.62,20.48-10.88,6.64-.92,8.39,1.7,8.39,4.45,0,4.6-2,5.83-8.79,6.42-11.61,1-19.46,10.33-20.08,22.36v43.11c0,3-.17,4.13-1.1,5.65a6.21,6.21,0,0,1-10.12,0c-0.93-1.52-1.1-2.7-1.1-5.65V121.18c0-3,.17-4.13,1.1-5.65a6.21,6.21,0,0,1,10.12,0c0.93,1.52,1.1,2.7,1.1,5.65v2.45Z" transform="translate(-87.07 -61.2)"/><path class="a" d="M440.28,149.1h25.14v-6.75c0-12.65-5.91-19.15-20.42-19.15-8.52,0-13.25,2.28-18.81,7.34a7.8,7.8,0,0,1-5.15,2.19,5.09,5.09,0,0,1-3.71-1.52,5.41,5.41,0,0,1-1.52-3.88c0-3,3-6.07,7.93-9.28,6-3.8,12.49-5.4,21.34-5.4,21.43,0,32.56,9.62,32.56,27.76v48.68c0,3-.17,4.13-1.1,5.65a6.21,6.21,0,0,1-10.12,0c-0.93-1.52-1.1-2.7-1.1-5.65v-0.17c-6.75,6.58-13.08,8.77-23.79,8.77-11.47,0-18.39-2.28-23.62-7.59a24.41,24.41,0,0,1-6.33-17C411.59,158.55,422.22,149.1,440.28,149.1Zm2.53,38.22c6.92,0,12.5-1.77,17.65-6.75,2.87-2.78,5-6.25,5-13.33v-8.86H441.63c-11.9,0-18,5.15-18,14.68S429.9,187.32,442.81,187.32Z" transform="translate(-87.07 -61.2)"/><path class="a" d="M558.23,189.09c0,3-.25,4.22-1.1,5.65a6,6,0,0,1-5.06,2.62,5.84,5.84,0,0,1-5.06-2.62c-0.84-1.43-1.1-2.62-1.1-5.65V145.73c0-14.76-7.68-22-20.33-22.1-9.87,0-19.37,8.58-20.75,23.1v42.36c0,3-.25,4.22-1.1,5.65a6.21,6.21,0,0,1-10.12,0c-0.84-1.43-1.1-2.62-1.1-5.65V121.26c0-3,.17-4.13,1.1-5.65a6.21,6.21,0,0,1,10.12,0c0.93,1.52,1.1,2.7,1.1,5.65v1.52a30.46,30.46,0,0,1,23.29-10.12c9,0,16.37,2.7,21.51,7.76,5.91,5.74,8.61,13.58,8.61,23.2v45.47Z" transform="translate(-87.07 -61.2)"/><path class="a" d="M339.92,123.48a38.24,38.24,0,0,0-28.47-12c-10,0-20.53,4.45-26.59,10.94V77.86s0.29-7.49-7-7.49c-6,0-6,7.49-6,7.49v76.43c0,29.75,19.88,43.06,39.58,43.06S351,184,351,154.29C351,142,347.19,131.33,339.92,123.48Zm-28.47,60.87c-19.6,0-26.59-15.53-26.59-30.07,0-17.86,10.69-29.86,26.59-29.86s26.59,12,26.59,29.86C338,168.82,331.06,184.35,311.45,184.35Z" transform="translate(-87.07 -61.2)"/><path class="a" d="M571.09,154.29c0,29.75,19.88,43.06,39.58,43.06s39.58-13.31,39.58-43.06V77.86s0-7.49-6-7.49c-7.27,0-7,7.49-7,7.49v44.51c-6.06-6.49-16.55-10.94-26.59-10.94a38.24,38.24,0,0,0-28.47,12C574.93,131.33,571.09,142,571.09,154.29Zm13,0c0-17.86,10.69-29.86,26.59-29.86s26.59,12,26.59,29.86c0,14.53-7,30.07-26.59,30.07S584.08,168.82,584.08,154.29Z" transform="translate(-87.07 -61.2)"/><path class="a" d="M167,72A10.81,10.81,0,1,1,156.18,61.2,10.81,10.81,0,0,1,167,72ZM156.18,91.36a11.24,11.24,0,1,0,11.24,11.24A11.24,11.24,0,0,0,156.18,91.36Zm0,30.16a11.68,11.68,0,1,0,11.68,11.68A11.68,11.68,0,0,0,156.18,121.53Zm0,31a11.24,11.24,0,1,0,11.24,11.24A11.24,11.24,0,0,0,156.18,152.55Zm0,31A10.81,10.81,0,1,0,167,194.39,10.81,10.81,0,0,0,156.18,183.58Zm29.77-93.66a12.68,12.68,0,1,0,12.68,12.68A12.68,12.68,0,0,0,185.95,89.92Zm0,30.16a13.12,13.12,0,1,0,13.12,13.12A13.12,13.12,0,0,0,185.95,120.08Zm0,31a12.68,12.68,0,1,0,12.68,12.68A12.68,12.68,0,0,0,185.95,151.11Zm30.56-32.47a14.56,14.56,0,1,0,14.56,14.56A14.56,14.56,0,0,0,216.51,118.64ZM126,92.8a9.8,9.8,0,1,0,9.8,9.8A9.8,9.8,0,0,0,126,92.8ZM126,123a10.23,10.23,0,1,0,10.23,10.23A10.23,10.23,0,0,0,126,123Zm0,31a9.8,9.8,0,1,0,9.8,9.8A9.8,9.8,0,0,0,126,154ZM95.86,124.41a8.79,8.79,0,1,0,8.79,8.79A8.79,8.79,0,0,0,95.86,124.41Z" transform="translate(-87.07 -61.2)"/></svg>